<?xml version="1.0" encoding="UTF-8"?> <svg xmlns="http://www.w3.org/2000/svg" width="487" height="268" viewBox="0 0 487 268" fill="none"><g clip-path="url(#clip0)"><path d="M271.5 35.3067H428.108V228.085H271.5V35.3067Z" fill="white"></path><path d="M52.4625 81.0013L59.2683 96.2707H46.1364L52.4625 81.0013ZM84.6593 77.4013H93.974C105.808 77.4013 111.185 84.5987 111.185 93.064C111.185 98.2787 108.034 108.727 94.3229 108.727H84.6593V77.4013ZM6.08593 77.1613H9.99063C15.8588 77.1613 18.2312 79.5707 18.2803 83.532C18.3292 87.0707 16.4765 90.4027 9.99063 90.4027H6.08593V77.1613ZM160.157 76.988C169.62 76.988 176.605 83.7853 176.605 93.064C176.605 102.283 169.62 109.163 160.157 109.163C150.737 109.163 143.732 102.276 143.732 93.064C143.732 83.7853 150.744 76.988 160.157 76.988ZM124.426 71.9493V114.159H130.491V71.9493H124.426ZM78.5735 71.9493V114.18H95.0427C108.974 114.18 117.446 103.909 117.446 93.064C117.446 83.1187 110.586 71.9493 94.9989 71.9493H78.5735ZM50.412 71.7307L32.4151 113.853C29.7136 110.137 28.6021 108.617 26.8527 105.804C23.6375 100.54 21.2995 96.6547 17.4729 94.112C21.9781 92.3213 24.5188 88.6613 24.5188 83.772C24.5188 76.4667 19.2063 71.9493 10.6672 71.9493H0.0218751V114.159H6.08593V95.8347H8.61667C11.7276 95.8347 14.2297 96.8373 19.8287 105.499L25.3912 114.159H32.6333H38.4579L43.8021 101.724H61.7333L67.3828 114.159H73.5563L54.6875 71.7307H50.412ZM160.136 71.404C146.449 71.3973 137.492 81.3707 137.492 93.064C137.492 104.513 146.215 114.725 160.004 114.725C174.296 114.725 182.844 104.447 182.844 93.064C182.844 81.3093 174.06 71.404 160.136 71.404ZM83.3505 36.5013V46.536H89.8729C89.8729 46.536 90.0047 46.5134 90.2 46.5134C90.4385 46.5014 90.7312 46.4827 91.1167 46.4707C91.8073 46.3907 92.7579 46.252 93.6688 45.9467C94.4817 45.684 95.2604 45.2653 95.8719 44.66C96.1041 44.4093 96.2896 44.1627 96.4609 43.9173C96.9557 43.1173 97.1063 42.3133 97.1369 41.868C97.1489 41.6467 97.1369 41.5187 97.1369 41.5187C97.1369 41.5187 97.1369 41.4347 97.1369 41.3C97.1369 41.104 97.1161 40.7227 97.0063 40.3187C96.8776 39.8427 96.6677 39.2893 96.2645 38.7693L95.9807 38.508C95.8156 38.3253 95.6213 38.1373 95.4136 37.984C95.0531 37.728 94.6479 37.504 94.214 37.308C93.6333 37.052 92.9688 36.86 92.2292 36.7187C91.8807 36.652 91.486 36.5907 91.0948 36.5667C90.8317 36.5307 90.5937 36.5253 90.3312 36.5013C90.1047 36.4893 89.8839 36.5013 89.6328 36.5013H83.3505ZM20.8323 36.5013V46.536H27.3547C27.3547 46.536 27.4896 46.5134 27.7036 46.5134C27.9115 46.5014 28.2407 46.4827 28.6197 46.4707C29.3287 46.3907 30.2453 46.252 31.15 45.9467C31.9631 45.684 32.7579 45.2653 33.3751 44.66C33.6136 44.4093 33.8052 44.1627 33.964 43.9173C34.4651 43.1173 34.588 42.3133 34.6188 41.868C34.6432 41.6467 34.6407 41.5187 34.6407 41.5187V41.3C34.6156 41.104 34.5953 40.7227 34.5093 40.3187C34.3932 39.8427 34.162 39.2893 33.7459 38.7693L33.4844 38.508C33.3011 38.3253 33.1188 38.1373 32.9172 37.984C32.5505 37.728 32.1417 37.504 31.6953 37.308C31.1027 37.052 30.4412 36.86 29.7323 36.7187C29.3713 36.652 28.9828 36.5907 28.5979 36.5667C28.3473 36.5307 28.0792 36.5253 27.8344 36.5013C27.6084 36.4893 27.3568 36.5013 27.1364 36.5013H20.8323ZM83.3505 21.2533V30.7427H86.4917C86.4917 30.7427 86.7063 30.7547 86.9937 30.7427C87.2317 30.7427 87.4688 30.7227 87.7136 30.6987C88.3552 30.6613 89.2484 30.572 90.1349 30.328C90.3183 30.2733 90.5052 30.2027 90.6584 30.1533C91.3672 29.8973 92.0339 29.5387 92.5781 29.0187C92.9875 28.604 93.2453 28.144 93.4287 27.7107C93.6609 27.1667 93.7412 26.6467 93.7776 26.292C93.7901 25.932 93.7995 25.7467 93.7995 25.7467C93.7995 25.7467 93.7995 25.5893 93.7995 25.3333C93.7869 24.9293 93.6932 24.2387 93.3631 23.6093C93.2041 23.292 92.9989 22.9747 92.6869 22.6933C92.3385 22.356 91.924 22.0933 91.4656 21.8853C90.5667 21.5013 89.5323 21.324 88.6953 21.276C88.3099 21.2507 87.9729 21.2533 87.6917 21.2533H83.3505ZM20.8323 21.2533V30.7427H23.9953C23.9953 30.7427 24.2063 30.7547 24.4751 30.7427C24.6953 30.7427 24.9751 30.7227 25.1948 30.6987C25.8369 30.6613 26.7459 30.572 27.638 30.328C27.8213 30.2733 27.9781 30.2027 28.1615 30.1533C28.8584 29.8973 29.5401 29.5387 30.0593 29.0187C30.4932 28.604 30.7584 28.144 30.9536 27.7107C31.174 27.1667 31.2568 26.6467 31.2812 26.292C31.3115 25.932 31.3245 25.7467 31.3245 25.7467V25.3333C31.2817 24.9293 31.1907 24.2387 30.8667 23.6093C30.7079 23.292 30.4995 22.9747 30.212 22.6933C29.8453 22.356 29.4177 22.0933 28.9469 21.8853C28.0547 21.5013 27.0448 21.324 26.1765 21.276C25.8099 21.2507 25.464 21.2533 25.1948 21.2533H20.8323ZM76.7631 15.4067H88.6953C95.1136 15.4067 97.9656 18.7667 97.9656 18.7667C97.9656 18.7667 100.562 21.0213 100.562 24.94C100.562 28.8027 98.7823 30.4 98.2932 30.8947C97.2235 31.952 95.85 32.5974 95.85 32.5974C95.85 32.5974 98.8953 33.2453 101.304 35.628C104.109 38.44 103.899 42.0853 103.899 42.0853C103.899 42.0853 104.13 45.6133 101.085 48.652C97.3688 52.368 90.6145 52.1853 90.6145 52.1853H76.7631V15.4067ZM14.2443 15.4067H26.1984C32.6104 15.4067 35.4473 18.7667 35.4473 18.7667C35.4473 18.7667 38.0432 21.0213 38.0432 24.94C38.0432 28.8027 36.2817 30.4 35.7745 30.8947C34.7235 31.952 33.3531 32.5974 33.3531 32.5974C33.3531 32.5974 36.3885 33.2453 38.7849 35.628C41.5907 38.44 41.3807 42.0853 41.3807 42.0853C41.3807 42.0853 41.5927 45.6133 38.5667 48.652C34.8443 52.368 28.0964 52.1853 28.0964 52.1853H14.2443V15.4067ZM153.984 14.9493C154.204 14.9493 154.335 14.9493 154.573 14.9493C155.056 14.9493 155.547 14.9787 156.077 15.0147C156.359 15.0267 156.651 15.0427 156.951 15.08C157.379 15.1107 157.779 15.1493 158.193 15.2107L158.499 15.2333C158.732 15.2813 158.981 15.336 159.219 15.3853C159.507 15.4227 159.783 15.4653 160.069 15.5373C160.376 15.5867 160.652 15.6454 160.92 15.7134C161.085 15.756 161.253 15.7973 161.4 15.8213C161.657 15.8893 161.917 15.972 162.185 16.04C162.369 16.0893 162.585 16.1253 162.775 16.192L162.949 16.2587C163.169 16.3133 163.396 16.3773 163.604 16.4333C163.867 16.512 164.12 16.6027 164.389 16.6947C164.621 16.768 164.852 16.852 165.065 16.912C165.335 17.0227 165.579 17.104 165.829 17.196C166.263 17.3547 166.661 17.4947 166.985 17.6107C167.724 17.8973 168.141 18.068 168.141 18.068V24.9187L167.443 24.5253C167.18 24.3853 166.852 24.192 166.461 24.0013C166.253 23.892 166.013 23.7587 165.764 23.6307C165.457 23.5027 165.149 23.3413 164.825 23.1947C164.409 23 163.997 22.8173 163.539 22.628C163.215 22.5053 162.853 22.364 162.535 22.2347C162.535 22.2347 162.309 22.1853 161.924 22.0387C161.692 21.9773 161.409 21.8867 161.073 21.7773C160.853 21.6973 160.599 21.6133 160.353 21.5587C159.92 21.4493 159.465 21.3533 158.957 21.232C158.645 21.1827 158.303 21.1187 157.953 21.0573C157.544 20.9893 157.104 20.9533 156.689 20.904C156.456 20.88 156.22 20.8693 155.969 20.8387C155.62 20.8267 155.288 20.8293 154.921 20.8173C154.757 20.8173 154.591 20.8173 154.42 20.8173C153.937 20.8173 153.456 20.84 152.937 20.8827C152.661 20.8947 152.399 20.9227 152.129 20.948C151.855 20.9907 151.613 21.024 151.344 21.0787C151.112 21.116 150.847 21.1827 150.603 21.232C150.371 21.2987 150.112 21.3667 149.861 21.428C149.604 21.5067 149.343 21.588 149.097 21.668C148.853 21.7587 148.616 21.8227 148.377 21.908C148.139 21.9933 147.919 22.1027 147.68 22.2134C146.2 22.8854 144.763 23.8427 143.492 25.1147L143.229 25.3974C143.059 25.5627 142.909 25.7507 142.749 25.9213C142.633 26.0613 142.532 26.2013 142.423 26.336C142.129 26.7267 141.879 27.1227 141.659 27.5134C141.543 27.6907 141.439 27.876 141.353 28.0587C141.244 28.292 141.108 28.5187 141.004 28.7573C140.931 28.9347 140.857 29.1094 140.808 29.28C140.704 29.5494 140.616 29.7933 140.525 30.044C140.439 30.3187 140.361 30.5734 140.307 30.8294C140.209 31.2267 140.131 31.5933 140.088 31.9427C140.015 32.5227 139.969 33.04 139.957 33.4253V33.8613C139.957 34.064 139.967 34.312 139.98 34.5814C139.992 34.7654 139.987 34.9507 140.023 35.1707C140.079 35.7387 140.185 36.412 140.351 37.1333C140.424 37.384 140.499 37.6627 140.591 37.9187C140.7 38.2547 140.803 38.596 140.961 38.944C141.047 39.152 141.131 39.3467 141.223 39.5547C141.345 39.8 141.484 40.0587 141.637 40.2974C141.729 40.4867 141.827 40.628 141.943 40.7987C142.059 40.964 142.169 41.1387 142.292 41.3213C142.427 41.4867 142.577 41.6627 142.707 41.8453C142.981 42.1573 143.267 42.4787 143.579 42.784L143.665 42.8707L143.732 42.936L143.84 43.0453L144.059 43.2413C144.241 43.3707 144.445 43.5413 144.648 43.7C144.831 43.84 145.025 43.9987 145.215 44.1147C145.385 44.2427 145.564 44.3627 145.716 44.4853C145.888 44.5707 146.037 44.6614 146.196 44.7467C146.532 44.9427 146.873 45.112 147.221 45.2707C147.399 45.3373 147.548 45.4093 147.701 45.488L147.985 45.5974C148.125 45.652 148.279 45.7227 148.443 45.772C149.415 46.1267 150.423 46.3733 151.432 46.5573C152.073 46.6493 152.659 46.7387 153.264 46.776C153.796 46.8187 154.296 46.8413 154.791 46.8413C155.036 46.8413 155.285 46.8094 155.555 46.7974C155.94 46.7854 156.38 46.7587 156.863 46.7107C157.187 46.6853 157.509 46.6347 157.845 46.5787C157.992 46.5667 158.144 46.5387 158.303 46.5134C159.52 46.2814 160.909 45.9453 162.425 45.4013C163.215 45.12 164.053 44.78 164.891 44.376C165.392 44.1253 165.911 43.8693 166.417 43.612C166.876 43.3493 167.309 43.0707 167.792 42.784L168.272 42.5213L168.533 42.3467V49.328C168.399 49.3707 168.288 49.432 168.184 49.48C167.891 49.6147 167.584 49.76 167.333 49.8947C167.035 50.0227 166.764 50.144 166.483 50.2653C166.049 50.4613 165.629 50.612 165.305 50.7453C165.055 50.8307 164.847 50.912 164.695 50.9853L164.389 51.0733C164.065 51.1893 163.735 51.308 163.385 51.4C163.087 51.5107 162.809 51.5707 162.491 51.6613C162.064 51.76 161.621 51.8853 161.139 51.9893C160.845 52.044 160.525 52.1214 160.201 52.164C159.693 52.268 159.177 52.336 158.608 52.404C158.248 52.452 157.872 52.4973 157.475 52.5347L157.277 52.556C156.312 52.636 155.257 52.6867 154.115 52.6867H153.679C153.367 52.6627 153.043 52.6467 152.719 52.6213C152.095 52.5907 151.489 52.548 150.908 52.4693C150.309 52.4133 149.719 52.3107 149.163 52.2067C148.491 52.0667 147.813 51.8987 147.177 51.728C146.811 51.6227 146.479 51.528 146.131 51.4C145.783 51.2893 145.429 51.1573 145.105 51.0293C144.244 50.6747 143.443 50.292 142.728 49.8947C142.38 49.6813 142.036 49.4573 141.681 49.2627C141.381 49.0667 141.111 48.8813 140.831 48.6733C140.611 48.508 140.393 48.3307 140.197 48.172C139.972 48.0067 139.76 47.816 139.565 47.6693C139.284 47.4133 139.043 47.1667 138.78 46.928L138.649 46.7974C138.361 46.516 138.073 46.2054 137.799 45.8814C137.553 45.612 137.299 45.3453 137.079 45.052C136.852 44.7707 136.66 44.476 136.445 44.1573C136.287 43.9253 136.115 43.676 135.944 43.4373C135.767 43.12 135.588 42.8213 135.399 42.4787C135.105 41.9093 134.804 41.3133 134.548 40.6893C134.389 40.304 134.231 39.9 134.089 39.4893C133.98 39.1413 133.867 38.7907 133.763 38.4427C133.708 38.168 133.637 37.8827 133.588 37.6134C133.564 37.4734 133.547 37.3613 133.523 37.2213C133.461 36.8973 133.403 36.544 133.348 36.196L133.326 36C133.302 35.7067 133.264 35.3987 133.239 35.1053C133.227 34.8173 133.217 34.5547 133.217 34.2547C133.217 33.8693 133.236 33.4827 133.26 33.0987C133.304 32.6027 133.336 32.12 133.392 31.6373C133.593 30.1453 133.975 28.7253 134.483 27.404C134.904 26.3467 135.385 25.3547 135.965 24.4373C136.039 24.2853 136.133 24.1334 136.249 23.98C136.396 23.748 136.524 23.524 136.707 23.304C136.915 23.016 137.111 22.744 137.361 22.4747C137.551 22.2187 137.777 21.9614 138.016 21.712C138.2 21.448 138.451 21.212 138.671 20.992C138.945 20.7533 139.212 20.4787 139.5 20.228C139.824 19.9707 140.133 19.6773 140.481 19.4213C140.652 19.2867 140.812 19.1947 140.983 19.072C141.184 18.9187 141.399 18.7707 141.593 18.636C141.955 18.3973 142.327 18.18 142.707 17.9587C143.121 17.7213 143.525 17.504 143.971 17.2827C144.472 17.0387 145.039 16.8014 145.608 16.564C146.696 16.148 147.867 15.7853 149.163 15.516C149.359 15.4733 149.569 15.416 149.796 15.3853C149.936 15.3493 150.101 15.328 150.253 15.2987L150.603 15.2333L150.908 15.2107L151.169 15.1893C151.493 15.1347 151.805 15.1107 152.129 15.08C152.344 15.056 152.557 15.0334 152.784 15.0147C153.163 14.9894 153.568 14.9613 153.984 14.9493ZM125.037 8.25201V59.2974H179.288V8.25201H125.037ZM62.5401 8.25201V59.2974H116.791V8.25201H62.5401ZM0 8.25201V59.2974H54.2511V8.25201H0Z" fill="white"></path><path d="M353.733 116.667C343.152 116.893 334.729 125.675 334.973 136.256C335.205 145.437 342.076 152.972 351.051 154.58L357.943 155.801C356.147 167.996 351.6 177.14 341.343 184.683C355.164 178.545 365.764 165.308 370.661 151.285C375.563 137.245 372.775 116.283 353.733 116.667ZM366.931 38.7694H398.387L398.32 146.879L425.523 146.813L425.501 186.995H398.299L398.387 221.461L349.632 221.504L349.567 190.507C349.567 190.507 349.517 187.092 345.423 186.95L275.727 186.995L275.749 158.397C275.761 154.228 277.82 148.095 280.308 144.763L354.824 44.812C357.324 41.4747 362.761 38.7574 366.931 38.7694V38.7694ZM352.927 0.00669727C279.041 0.00669727 219.164 59.9254 219.164 133.835C219.164 207.744 279.041 267.64 352.927 267.64C426.792 267.64 486.667 207.744 486.667 133.835C486.667 59.9254 426.792 0.00669727 352.927 0.00669727Z" fill="#1D2E55"></path></g><defs><clipPath id="clip0"><rect width="486.667" height="267.64" fill="white"></rect></clipPath></defs></svg> 